<svg enable-background="new 0 0 40 32" viewBox="0 0 40 32" xmlns="http://www.w3.org/2000/svg"><g fill="#134264"><path d="m32.3 26c-1 0-1.8-.2-2.7-.9-6.5-5.6-12.1-5.3-17.6-4.9-1.3.1-2.5.1-3.7.1-3.7 0-6.6-3-6.6-6.6h1c0 3.1 2.5 5.6 5.6 5.6 1.2 0 2.4-.1 3.7-.1 5.4-.3 11.6-.7 18.3 5.2.7.6 1.3.7 2.5.6v-22.5c-1.2-.1-1.8.1-2.5.6-6.8 5.9-12.9 5.5-18.3 5.2-1.3-.1-2.5-.1-3.7-.1-3.1 0-5.6 2.5-5.6 5.6h-1c0-3.6 3-6.6 6.6-6.6 1.2 0 2.4.1 3.7.1 5.5.3 11.2.7 17.6-4.9 1.1-.9 2.1-1 3.7-.8h.5v24.4h-.5c-.4 0-.7 0-1 0z"/><path d="m17.1 30.5h-5.5l-3.7-10.5.9-.3 3.5 9.8h3.4l-3.4-9.5 1-.3z"/><path d="m33.3 18.8v-1c2.2 0 4-1.8 4-4s-1.8-4-4-4v-1c2.8 0 5 2.3 5 5s-2.2 5-5 5z"/><path d="m29.4 2.8h1v22.2h-1z"/><path d="m15.2 7.9h1v11.6h-1z"/></g></svg>