<svg enable-background="new 0 0 50 50" viewBox="0 0 50 50" xmlns="http://www.w3.org/2000/svg"><g fill="#fff"><path d="m45 6.4c1.7 0 3 1.3 3 3v35.6c0 1.7-1.3 3-3 3h-40c-1.7 0-3-1.3-3-3v-35.6c0-1.7 1.3-3 3-3zm0-2h-40c-2.8 0-5 2.2-5 5v35.6c0 2.8 2.2 5 5 5h40c2.8 0 5-2.2 5-5v-35.6c0-2.7-2.2-5-5-5z"/><path d="m15.9 0h-1c-.6 0-1 .4-1 1v6.8c0 .6.4 1 1 1h1c.5 0 1-.4 1-1v-6.8c0-.6-.4-1-1-1z"/><path d="m35.1 0h-1c-.5 0-1 .4-1 1v6.8c0 .6.5 1 1 1h1c.5 0 1-.4 1-1v-6.8c0-.6-.5-1-1-1z"/><g clip-rule="evenodd" fill-rule="evenodd"><path d="m8.5 14.3h8.6v6.6h-8.6z"/><path d="m20.7 14.3h8.6v6.6h-8.6z"/><path d="m33 14.3h8.6v6.6h-8.6z"/><path d="m8.5 24.6h8.6v6.6h-8.6z"/><path d="m20.7 24.6h8.6v6.6h-8.6z"/><path d="m33 24.6h8.6v6.6h-8.6z"/><path d="m8.5 34.9h8.6v6.6h-8.6z"/><path d="m20.7 34.9h8.6v6.6h-8.6z"/><path d="m33 34.9h8.6v6.6h-8.6z"/></g></g></svg>