<svg enable-background="new 0 0 41 32" viewBox="0 0 41 32" xmlns="http://www.w3.org/2000/svg"><g fill="#134264"><path d="m32.5 18.2v8.8c0 2.3-5.4 4.1-12 4.1s-12-1.8-12-4.1v-8.8l12 5.9zm0-1c-.2 0-.3 0-.4.1l-11.6 5.6-11.6-5.6c-.1-.1-.3-.1-.4-.1-.2 0-.4 0-.5.1-.3.2-.5.5-.5.8v8.8c0 3.3 6.5 5.1 13 5.1s13-1.7 13-5.1v-8.8c0-.3-.2-.7-.5-.8-.1-.1-.3-.1-.5-.1z"/><path d="m39 26.1h-4c-.1 0-.3-.1-.4-.2s-.1-.3-.1-.4l.8-3.7c-.5-.5-.8-1.1-.8-1.8 0-.8.4-1.5 1-1.9v-4.8l-14.8 7.2c-.1.1-.3.1-.4 0l-20-9.8c-.2-.1-.3-.3-.3-.5s.1-.4.3-.4l20-9.8c.1-.1.3-.1.4 0l20 9.8c.2.1.3.3.3.4 0 .2-.1.4-.3.4l-2.2 1.1v6.3c.6.5 1 1.2 1 1.9s-.3 1.3-.8 1.8l.8 3.7c0 .1 0 .3-.1.4-.1.2-.2.3-.4.3zm-3.4-1h2.8l-.7-3.4c0-.2 0-.4.2-.5.4-.3.6-.7.6-1.2s-.3-1-.8-1.3c-.2-.1-.2-.2-.2-.4v-6.9c0-.2.1-.4.3-.4l1.6-.8-18.9-9.2-18.9 9.2 18.9 9.2 15.3-7.4c.2-.1.3-.1.5 0 .1.1.2.2.2.4v5.9c0 .2-.1.3-.2.4-.5.3-.8.7-.8 1.3 0 .5.2.9.6 1.2.2.1.2.3.2.5z"/></g></svg>