<svg enable-background="new 0 0 50 50" viewBox="0 0 50 50" xmlns="http://www.w3.org/2000/svg"><g clip-rule="evenodd"><path d="m50 25v15.2c0 1.7-.5 2.2-2.2 2.3-6.7.2-13.1 1.3-19 4.6-.5.3-1.1.3-1.6.4-.8.1-1.7 0-2.6 0-1.8.1-3.4-.4-5-1.2-5.1-2.6-10.6-3.5-16.3-3.8-3.2-.1-3.3-.2-3.3-3.4 0-9.7 0-19.5 0-29.2 0-1.9.2-2.1 2.1-2.4.3-.1.7-.4 1-.6 1.1-1.2 2.1-2.4 3.2-3.6.4-.4 1-.7 1.6-.7 6 .1 11.5 1.6 16.4 5.4.6.5 1 .5 1.7 0 4.8-3.7 10.4-5.3 16.4-5.4.6 0 1.2.4 1.7.8.9.8 1.6 1.8 2.4 2.7.7.8 1.2 1.6 2.5 1.6 1 0 1.3.9 1.3 1.9-.3 5.1-.3 10.2-.3 15.4zm-25-14.4c-4.5-4.3-9.9-6-15.8-6.5-.6-.1-1.4-.2-1.7.1-1.1 1-2 2.1-3.1 3.4.6 0 .9.1 1.2.1 4.4.5 8.9 1.1 12.9 3.1 2.6 1.4 5.3 1.8 8.1 1.6h1.2c.4-.1.7-.1 1.1-.3 3.5-2.1 7.3-3.2 11.3-3.9 1.7-.3 3.4-.5 5.2-.7-.1-.2-.1-.4-.2-.4-.7-.8-1.4-1.7-2.2-2.5-.4-.3-1-.6-1.5-.6-6.1.5-11.8 2.1-16.5 6.6zm1.7 19.4c0-4.2 0-8.4 0-12.6 0-1.6-.1-1.6-1.7-1.6-1.7 0-1.8.1-1.8 1.6v25.4c0 1.4.2 1.6 1.8 1.6 1.5 0 1.7-.2 1.7-1.7.1-4.3.1-8.5 0-12.7z" fill="#fff" fill-rule="evenodd"/><path d="m0 0h50v50h-50z" fill="none"/></g></svg>