<svg enable-background="new 0 0 50 50" viewBox="0 0 50 50" xmlns="http://www.w3.org/2000/svg"><path d="m41.1 7.2c1.1 0 2 .9 2 2v18.8c0 1.1-.9 2-2 2h-32.2c-1.1 0-2-.9-2-2v-18.8c0-1.1.9-2 2-2zm0-3h-32.2c-2.7 0-5 2.2-5 5v18.8c0 2.8 2.3 5 5 5h32.2c2.8 0 5-2.2 5-5v-18.8c0-2.7-2.2-5-5-5z" fill="#fff"/><g clip-rule="evenodd"><path d="m50 40.4-4.9-6h-39.2l-5.9 6v1.4.7 1.9c0 .8.6 1.4 1.4 1.4h47.2c.8 0 1.4-.6 1.4-1.4v-1.9zm-15.1 1.4c0 .4-.3.7-.7.7h-18.4c-.4 0-.7-.3-.7-.7v-1.4h19.8z" fill="#fff" fill-rule="evenodd"/><path d="m0 0h50v50h-50z" fill="none"/></g></svg>