<svg enable-background="new 0 0 50 50" viewBox="0 0 50 50" xmlns="http://www.w3.org/2000/svg"><g clip-rule="evenodd"><path d="m40.6 15.3c-1.3-6.9-7.2-12.2-14.4-12.7-6.9-.6-13.6 3.7-16 10.2-2.1 5.6-1 10.8 2.1 15.7 2.4 3.7 4.9 7.4 7.3 11.1 1.8 2.6 3.5 5.3 5.4 8.1.2-.2.3-.4.4-.5 4.2-6.3 8.4-12.5 12.5-18.8 2.5-4.1 3.6-8.4 2.7-13.1zm-15.5 9.7c-3.6 0-6.7-3-6.6-6.6 0-3.6 2.9-6.6 6.6-6.6s6.6 3 6.6 6.6c-.1 3.6-3.1 6.6-6.6 6.6z" fill="#fff" fill-rule="evenodd"/><path d="m0 0h50v50h-50z" fill="none"/></g></svg>