<svg enable-background="new 0 0 50 50" viewBox="0 0 50 50" xmlns="http://www.w3.org/2000/svg"><path d="m47 22.7-5.1-4.6h-15.6v4.6 4.6h15.6z" fill="none"/><path d="m3 15.4 5.1 4.5h15.6v-4.5-4.6h-15.6z" fill="none"/><path d="m42.6 29.3 7.4-6.6-7.4-6.6h-16.6v-11.2c.9-.4 1.6-1.3 1.6-2.4 0-1.4-1.2-2.5-2.6-2.5s-2.6 1.1-2.6 2.6c0 1.1.6 2 1.6 2.4v3.9h-16.6l-7.4 6.5 7.4 6.6h16.6v26h-8.2v2h18.4v-2h-8.2v-18.7zm-16.3-6.6v-4.6h15.6l5.1 4.6-5.1 4.6h-15.6zm-2.6-7.3v4.6h-15.6l-5.1-4.6 5.1-4.6h15.6z" fill="#fff"/></svg>