<svg enable-background="new 0 0 40 32" viewBox="0 0 40 32" xmlns="http://www.w3.org/2000/svg"><g fill="#134264"><path d="m18.7 27.6c-.1 0-.3-.1-.4-.2l-9.4-10.4c-.1-.1-.1-.2-.1-.4 0-.1.1-.3.2-.3l16.3-14.7c.2-.2.5-.2.7 0l9.4 10.4c.1.1.1.2.1.4 0 .1-.1.3-.2.3l-16.3 14.8c-.1.1-.2.1-.3.1zm-8.7-10.9 8.7 9.7 15.6-14-8.7-9.7z"/><path d="m5 30.5c-.1 0-.3-.1-.4-.2s-.2-.3-.1-.5l4.3-13.3c.1-.2.2-.3.4-.3s.4 0 .5.2l9.3 10.4c.1.1.2.3.1.5s-.2.3-.4.3l-13.6 2.9c-.1 0-.1 0-.1 0zm4.5-12.8-3.8 11.6 12-2.5z"/><path d="m8.9 29.7c-.1 0-.3-.1-.4-.2l-2.7-3c-.2-.2-.2-.5 0-.7s.5-.2.7 0l2.7 3c.2.2.2.5 0 .7-.1.2-.2.2-.3.2z"/><path d="m15.5 24.1c-.1 0-.3-.1-.4-.2-.2-.2-.2-.5 0-.7l16.5-14.6c.2-.2.5-.2.7 0s.2.5 0 .7l-16.4 14.7c-.1.1-.2.1-.4.1z"/><path d="m12.4 20.7c-.1 0-.3-.1-.4-.2-.2-.2-.2-.5 0-.7l16.5-14.7c.2-.2.5-.2.7 0s.2.5 0 .7l-16.4 14.7c-.1.1-.3.2-.4.2z"/></g></svg>