<svg enable-background="new 0 0 50 50" viewBox="0 0 50 50" xmlns="http://www.w3.org/2000/svg"><path d="m16 11c0 .6-.4 1-1 1h-9v36h38v-46h-28zm19 24h-20c-.6 0-1-.4-1-1s.4-1 1-1h20c.6 0 1 .4 1 1s-.4 1-1 1zm0-7h-20c-.6 0-1-.4-1-1s.4-1 1-1h20c.6 0 1 .4 1 1s-.4 1-1 1zm1-8c0 .6-.4 1-1 1h-20c-.6 0-1-.4-1-1s.4-1 1-1h20c.6 0 1 .4 1 1z" fill="none"/><path d="m14 2.8-7.3 7.2h7.3z" fill="none"/><g fill="#fff"><path d="m14 0-10 9.8v40.2h42v-50zm0 2.8v7.2h-7.3zm30 45.2h-38v-36h9c.6 0 1-.4 1-1v-9h28z"/><path d="m14 20c0 .6.4 1 1 1h20c.6 0 1-.4 1-1s-.4-1-1-1h-20c-.6 0-1 .4-1 1z"/><path d="m35 26h-20c-.6 0-1 .4-1 1s.4 1 1 1h20c.6 0 1-.4 1-1s-.4-1-1-1z"/><path d="m35 33h-20c-.6 0-1 .4-1 1s.4 1 1 1h20c.6 0 1-.4 1-1s-.4-1-1-1z"/></g></svg>